<svg width="1367" height="225" viewBox="0 0 1367 225" fill="none" xmlns="http://www.w3.org/2000/svg">
<path d="M1156.42 94.3698L1156.69 93.7398C1158.97 87.8698 1155.07 75.3398 1154.16 68.9398C1153.06 61.0398 1152.32 53.1098 1151.94 45.1498C1151.56 35.3298 1153.76 8.4698 1150.5 0.999795C1162.34 -1.8302 1186.49 1.73979 1197.55 6.79979C1197.59 7.19979 1197.68 7.92979 1197.64 8.36979C1197.13 12.9598 1173.37 62.8498 1170.27 65.4898C1170.34 65.8898 1170.47 66.5398 1170.44 66.9698C1170.1 73.3798 1161.42 90.4198 1156.42 94.3698ZM1188.84 104.96C1189.16 104.4 1189.45 103.83 1189.76 103.26C1192.61 98.1698 1205.19 16.1898 1204.51 8.9998C1205.12 8.9598 1205.71 8.9398 1206.31 8.9998C1215.71 9.7398 1246.65 22.6498 1252.54 29.1698C1252.49 29.4798 1252.46 29.7998 1252.4 30.1198C1251.52 35.1198 1218.7 74.0298 1213.46 77.7898C1213.4 78.1498 1213.32 78.7798 1213.18 79.1598C1211.14 84.4298 1194.12 102.11 1188.84 104.96ZM1219.5 123.26C1219.9 122.82 1220.27 122.38 1220.66 121.94C1225.16 116.87 1257.18 39.3198 1257.57 32.9998L1258.07 33.0598C1260.1 33.2898 1261.54 33.7898 1263.3 34.7998C1270.68 39.0198 1297.26 57.6398 1299.28 65.0898C1297.5 69.6898 1252.16 102.07 1246.38 104.66C1246.34 104.8 1246.31 104.96 1246.25 105.08C1244.19 109.39 1224.59 121.48 1219.5 123.26ZM1243.58 144.73C1251.59 139.23 1300.41 79.0798 1303.81 70.9998L1306.44 71.6298C1313.91 78.0298 1332.96 101.63 1334.01 110.92C1329.97 115.94 1278.55 133.79 1269.95 136C1263.32 140.67 1251.51 143.14 1243.58 144.73ZM138.129 201.64C123.829 212.84 104.789 219.91 86.899 222.36C66.179 225.19 41.879 222.24 24.879 209.16C10.709 198.26 2.83897 181.82 0.678972 164.31C-1.74103 144.84 2.17897 124.31 14.519 108.71C27.919 91.7598 46.529 85.2698 67.349 82.8898C86.149 80.0398 108.439 85.9798 124.549 95.5698C125.919 109.8 125.069 124.91 125.119 139.22C123.098 136.602 120.973 134.067 118.749 131.62C109.039 121.2 95.599 115.85 81.469 115.44C69.869 115.1 57.809 117.37 49.209 125.73C41.819 132.9 38.259 143.16 38.109 153.33C37.959 163.41 41.169 173.71 48.339 180.99C55.239 187.99 64.789 191.01 74.459 190.99C79.819 190.97 87.859 190.59 91.739 186.28C96.039 181.49 94.239 170.75 94.019 164.68C91.289 161.98 88.489 159.85 88.149 155.88C94.599 152.46 120.719 154.35 129.319 154.38C130.069 154.36 130.849 154.31 131.599 154.38C133.899 154.62 134.379 154.67 135.769 156.51C135.319 159.93 132.149 162.98 130.019 165.58C129.319 174.53 129.619 183.63 130.109 192.58L138.129 201.64ZM234.659 223.5C225.372 225.089 215.863 224.829 206.676 222.735C197.49 220.64 188.808 216.753 181.127 211.295C173.447 205.837 166.92 198.916 161.921 190.93C156.922 182.944 153.549 174.049 151.995 164.756C150.442 155.463 150.738 145.954 152.868 136.776C154.998 127.598 158.92 118.931 164.407 111.272C169.895 103.613 176.841 97.1125 184.846 92.1442C192.852 87.1759 201.76 83.8373 211.059 82.3198C229.667 79.4451 248.657 84.0186 263.916 95.0493C279.175 106.08 289.472 122.679 292.577 141.25C295.681 159.82 291.343 178.866 280.502 194.26C269.66 209.654 253.19 220.156 234.659 223.49V223.5ZM216.549 115.7C206.779 118.34 199.149 123.4 193.999 132.33C188.529 141.82 187.439 153.83 190.439 164.3C193.129 173.68 199.159 182.02 207.809 186.72C214.669 190.45 221.969 191.08 229.649 190.32C239.549 187.28 247.229 182.08 252.269 172.8C257.469 163.23 258.469 151.31 255.269 140.93C252.379 131.62 246.219 123.48 237.439 119.03C230.809 115.67 223.879 114.97 216.539 115.69L216.549 115.7ZM391.179 223.9C372.333 226.453 353.244 221.414 338.113 209.893C322.981 198.371 313.047 181.311 310.494 162.465C307.941 143.619 312.98 124.53 324.501 109.399C336.022 94.2673 353.083 84.3325 371.929 81.7798C381.261 80.5158 390.75 81.1022 399.855 83.5056C408.96 85.9089 417.503 90.0821 424.995 95.7869C432.487 101.492 438.783 108.616 443.522 116.754C448.26 124.892 451.35 133.883 452.614 143.215C453.878 152.547 453.292 162.036 450.888 171.141C448.485 180.246 444.312 188.789 438.607 196.281C432.902 203.773 425.777 210.068 417.64 214.807C409.502 219.546 400.511 222.636 391.179 223.9ZM377.419 115.72C367.119 117.88 359.059 122.25 353.219 131.3C347.359 140.39 345.609 152 348.119 162.48C350.379 171.92 355.999 180.33 364.339 185.41C370.658 189.17 377.991 190.869 385.319 190.27C395.289 188.38 403.329 184.27 409.249 175.75C415.429 166.86 417.369 155.37 415.269 144.82C413.409 135.45 408.169 126.76 400.139 121.44C393.349 116.94 385.479 115.32 377.419 115.72ZM689.309 221.32C693.052 218.615 696.113 215.075 698.249 210.98C699.909 207.768 700.921 204.262 701.229 200.66C702.539 188.16 702.679 113 700.469 102.32C699.169 95.9998 693.159 91.7198 691.449 85.5598C691.389 85.3698 691.349 85.1798 691.309 84.9998C709.469 83.7198 772.509 83.3798 789.099 87.9898C803.369 91.9498 814.579 101.36 821.759 114.2C831.859 132.26 833.389 156.8 827.829 176.53C824.679 187.68 817.819 201.52 807.399 207.33C807.193 207.88 806.869 208.379 806.449 208.79C789.729 226.25 715.449 221.3 689.309 221.32ZM739.299 114C739.579 127.98 742.759 181.65 737.669 189.91C749.689 189.94 771.879 192.47 780.859 183.07C781.649 182.25 782.179 181.72 782.359 180.56C787.859 177.08 790.699 170.36 792.119 164.21C794.829 152.41 793.179 138.13 786.489 127.94C781.719 120.66 775.449 116.56 766.959 114.84C758.119 113.04 748.319 113.94 739.299 114ZM1031.54 164.4C1031.12 161.1 989.039 108.65 983.229 101.8C980.559 98.6398 971.819 90.7498 970.319 87.8398C969.969 87.1398 969.849 85.7998 969.669 84.9998C990.689 84.8298 1011.72 84.8998 1032.75 85.1798C1032.53 90.1298 1027.82 94.3098 1024.41 97.4798C1029.05 101.64 1052.54 133.06 1053.13 138.14C1053.72 137.76 1053.89 137.68 1054.39 137.27C1059.03 133.4 1080.97 102.84 1081.43 97.8698C1079.83 92.1498 1075.4 88.8198 1071.03 85.1398C1090.13 83.9198 1109.59 84.7398 1128.7 85.4398C1128.7 85.6098 1128.71 85.7898 1128.69 85.9698C1128.13 91.5898 1098.27 129.43 1092.48 133.87C1092.46 134.17 1092.44 134.7 1092.35 135.01C1091.04 139.38 1073.75 160.89 1069.5 163.74C1074.43 174.74 1068.9 194.62 1071.26 207.11C1072.23 212.19 1077.76 215.82 1077.67 221.1C1059.13 221.26 1040.59 221.22 1022.05 220.96C1025.73 218.13 1028.54 215.46 1030.26 211.03C1033.39 202.93 1034.96 172.05 1031.54 164.4ZM474.149 101.39C470.779 95.8798 466.199 91.4298 463.229 85.5798C487.859 84.6898 512.829 84.9598 537.479 85.2298C556.259 85.4298 573.989 89.2598 587.559 103.33C601.579 117.9 605.419 138.65 604.869 158.18C604.289 178.84 597.549 194.43 582.469 208.63C575.307 213.862 567.1 217.488 558.409 219.26C544.249 222.25 528.709 221 514.269 220.96L462.449 221.06C465.819 215.29 470.149 209.86 474.049 204.44C475.459 170.29 474.169 135.6 474.149 101.39ZM513.899 114.33C514.029 139.49 514.029 164.65 513.899 189.81C529.319 189.98 546.119 192.44 558.259 180.95C566.179 169.28 568.179 154.89 565.639 141.11C564.039 132.5 559.889 124.41 552.449 119.47C541.859 112.44 526.129 114.27 513.899 114.33ZM826.789 220.75C831.119 218.13 834.789 215.35 838.259 211.65C841.309 208.39 843.439 204.63 845.489 200.7C850.599 190.91 897.929 91.9098 897.739 85.9998C906.779 84.0398 917.789 85.2198 927.049 85.2998C934.219 90.6998 973.719 182.95 982.529 200.86C986.169 208.28 996.679 213.24 998.419 220.82C977.509 221.42 956.539 221.1 935.619 221.1C937.399 219.759 939.014 218.211 940.429 216.49C942.469 214.07 943.619 211.4 943.369 208.21L943.499 207.65C944.449 202.55 940.509 193.05 937.519 189.05C935.829 186.79 934.839 187.07 932.159 186.75H885.799C886.289 194.27 878.919 201.39 878.899 209.48C878.879 213.75 882.929 216.13 883.339 220.36L883.369 220.86C864.669 221.86 845.539 221 826.789 220.75ZM909.929 129.99C909.599 135.52 899.589 159.9 895.899 163.27L895.539 163.57H911.819L925.879 163.89C926.979 158.31 917.139 136.86 913.399 131.59C912.479 130.29 911.399 130.21 909.929 129.99ZM1149.45 220.93C1153.46 214.15 1150.59 126.03 1151.39 110C1174.73 110.46 1199.13 121.27 1216.97 135.91C1239.31 154.23 1254.7 181.98 1257.33 210.88C1257.7 214.97 1258.02 217.81 1255.34 221C1243.93 221.84 1231.86 221.05 1220.38 221C1196.74 220.84 1173.09 220.82 1149.45 220.93Z" fill="#BA8E23"/>
<path d="M1260.75 174.93C1268.28 171.69 1332.07 122.84 1336.45 117L1337.88 117.27C1339.04 118.017 1339.97 119.078 1340.55 120.33C1344.77 127.87 1358.89 158.03 1356.84 165.35C1338.03 169.81 1304.32 171.54 1284.31 173.22C1276.46 174.07 1268.64 174.55 1260.75 174.93Z" fill="#BA8E23"/>
<path d="M1270.77 208.83C1281.28 205.88 1292.13 199.99 1302.29 195.8C1319.34 188.77 1340.94 181.79 1356.62 173L1359.23 173.4C1359.79 173.97 1360.21 174.37 1360.54 175.12C1364.09 183.24 1368.21 214.22 1364.81 221.62C1343.51 217.32 1311.51 214.52 1289.29 212.28C1284.28 210.13 1276.29 209.78 1270.77 208.83Z" fill="#BA8E23"/>
</svg>
